<svg xmlns="http://www.w3.org/2000/svg" viewBox="0 0 548.58 98.17">
  <defs>
    <style>
      .cls-1 {
        fill: #fff;
      }
    </style>
  </defs>
  <g id="Ebene_2" data-name="Ebene 2">
    <g id="Ebene_1-2" data-name="Ebene 1">
      <polygon class="cls-1"
        points="251.85 96.18 252.14 21.28 222.33 21.28 230.03 2.22 326.25 2.22 318.55 21.28 296.44 21.28 296.72 96.18 251.85 96.18" />
      <path class="cls-1"
        d="M462.12,66.4h28.52L476.38,28.3,462.12,66.4ZM496.46,82H456.28L451,96.18H425.26l37.93-94h47.45l37.94,94H501.77L496.46,82Z" />
      <path class="cls-1"
        d="M370.87,21.28v74.9h-42v-94h73.6c21.83,0,29.17,14,29.17,25.08,0,14.19-10.45,21.32-16.38,25l20.2,43.9H389.59L374.49,52c6.63,0,15.6-3.77,15.6-16.67,0-8.73-6.33-14.09-12.59-14.09Z" />
      <path class="cls-1"
        d="M116.53,96.18c11.94,0,36.47,2,56.36,2,46.31,0,54.31-23.34,54.31-34.82,0-9.2-4.06-19.65-19.93-27.3-18.12-8.72-46.88-2.43-46.88-11.73,0-7.83,36.78-5.27,53.7-3L222,2.23S206,0,180.56,0c-40.69,0-61.19,9.23-61.19,33.42a27.55,27.55,0,0,0,11.55,22.21c22.81,17.05,54.18,6.76,54.18,16.87,0,3-1.65,5.89-20.28,5.89a365.6,365.6,0,0,1-39.89-2.88l-8.4,20.67Z" />
      <path class="cls-1"
        d="M36.85,66.4H65.37L51.12,28.3,36.85,66.4ZM71.21,82H31l-5.3,14.18H0l37.94-94H85.39l37.93,94H76.52L71.21,82Z" />
    </g>
  </g>
</svg>