<svg xmlns="http://www.w3.org/2000/svg" viewBox="0 0 187.78 243.32"><defs><style>.cls-1{fill:#c20634;}</style></defs><g id="Ebene_2" data-name="Ebene 2"><g id="Ebene_1-2" data-name="Ebene 1"><path d="M156.23,140.83a71.23,71.23,0,0,1-124.68,0H50.07c9.2,12.42,21.16,21,36.73,23l0-24.6a36.59,36.59,0,1,0-73.17,0c0,36.4,48.42,68.15,80.21,88.21,31.79-20.06,80.19-51.81,80.19-88.21a36.58,36.58,0,1,0-73.15,0l0,24.6c15.57-2,27.53-10.61,36.73-23ZM82.94,24.26a11,11,0,1,0,11-11,10.95,10.95,0,0,0-11,11Zm-13.31,0a24.26,24.26,0,1,1,31.14,23.26v5.13c17.86,1.13,36.54,6,36.54,6V69.24H100.8l.07,36.67A48.46,48.46,0,0,1,137.7,89.2a50.06,50.06,0,0,1,50.08,50.06c0,46.51-58.23,81.25-93.89,104.06C58.22,220.51,0,185.77,0,139.26A50.06,50.06,0,0,1,50.07,89.2a48.49,48.49,0,0,1,36.84,16.71L87,69.24H50.46V58.68s18.69-4.9,36.54-6V47.52A24.27,24.27,0,0,1,69.63,24.26Z"/><path class="cls-1" d="M156.23,140.83a71.23,71.23,0,0,1-124.68,0H50.07c9.2,12.42,21.16,21,36.73,23l0-24.6a36.59,36.59,0,1,0-73.17,0c0,36.4,48.42,68.15,80.21,88.21,31.79-20.06,80.19-51.81,80.19-88.21a36.58,36.58,0,1,0-73.15,0l0,24.6c15.57-2,27.53-10.61,36.73-23Z"/></g></g></svg>